<svg xmlns="http://www.w3.org/2000/svg" width="640" height="480" viewBox="0 0 640 480" role="img">
  <rect width="640" height="480" fill="#f4f7ff"/>
  <rect x="0" y="110" width="640" height="370" fill="#e6ece8"/>
  <path d="M0 420 C115 360 220 330 320 312 C420 292 520 288 640 304 L640 480 L0 480 Z" fill="#ced8d2"/>
  <path d="M88 480 C184 392 255 332 320 144 C385 332 456 392 552 480 Z" fill="#395b88" opacity="0.88"/>
  <path d="M308 155 L284 480" stroke="#ffffff" stroke-width="8" stroke-linecap="round" stroke-dasharray="24 24" opacity="0.86"/>
  <path d="M361 155 L391 480" stroke="#ffffff" stroke-width="8" stroke-linecap="round" stroke-dasharray="24 24" opacity="0.86"/>
  <rect x="117" y="32" width="18" height="118" rx="6" fill="#176b57"/>
  <circle cx="126" cy="22" r="49" fill="#ffffff" stroke="#d45b5b" stroke-width="12"/>
  <path d="M240 176 h117 a26 26 0 0 1 24 17 l13 39 h-179 l14-37 a26 26 0 0 1 25-19 z" fill="#176b57"/>
  <circle cx="270" cy="232" r="14" fill="#1f2d2a"/>
  <circle cx="367" cy="232" r="14" fill="#1f2d2a"/>
  <path d="M437 178 l54 -42 l54 42 v92 h-108 z" fill="#ffffff" stroke="#395b88" stroke-width="10" stroke-linejoin="round"/>
  <rect x="469" y="218" width="44" height="52" rx="5" fill="#d45b5b" opacity="0.82"/>
  <path d="M88 322 c22 -34 58 -34 80 0 c-20 20 -60 20 -80 0 z" fill="#d45b5b" opacity="0.72"/>
  <path d="M501 362 c20 -42 66 -42 86 0 c-22 26 -64 26 -86 0 z" fill="#395b88" opacity="0.48"/>
</svg>
