<svg xmlns="http://www.w3.org/2000/svg" width="640" height="480" viewBox="0 0 640 480" role="img">
  <rect width="640" height="480" fill="#fbf7f1"/>
  <rect x="0" y="138" width="640" height="342" fill="#e6ece8"/>
  <path d="M0 420 C140 360 220 330 320 312 C420 292 520 288 640 304 L640 480 L0 480 Z" fill="#ced8d2"/>
  <path d="M88 480 C184 392 255 332 320 172 C385 332 456 392 552 480 Z" fill="#5e6f64" opacity="0.88"/>
  <path d="M315 183 L277 480" stroke="#ffffff" stroke-width="8" stroke-linecap="round" stroke-dasharray="24 24" opacity="0.86"/>
  <path d="M370 183 L381 480" stroke="#ffffff" stroke-width="8" stroke-linecap="round" stroke-dasharray="24 24" opacity="0.86"/>
  <rect x="49" y="60" width="18" height="118" rx="6" fill="#f0b84a"/>
  <circle cx="58" cy="50" r="37" fill="#ffffff" stroke="#176b57" stroke-width="12"/>
  <path d="M250 162 h120 a26 26 0 0 1 24 17 l13 39 h-182 l14-37 a26 26 0 0 1 25-19 z" fill="#f0b84a"/>
  <circle cx="280" cy="209" r="16.5" fill="#1f2d2a"/>
  <circle cx="380" cy="209" r="16.5" fill="#1f2d2a"/>
  <path d="M429 193 l54 -42 l54 42 v92 h-108 z" fill="#ffffff" stroke="#5e6f64" stroke-width="10" stroke-linejoin="round"/>
  <rect x="461" y="233" width="44" height="52" rx="5" fill="#176b57" opacity="0.82"/>
  <path d="M68 322 c22 -34 58 -34 80 0 c-20 20 -60 20 -80 0 z" fill="#176b57" opacity="0.72"/>
  <path d="M496 362 c20 -42 66 -42 86 0 c-22 26 -64 26 -86 0 z" fill="#5e6f64" opacity="0.39"/>
</svg>
