<svg xmlns="http://www.w3.org/2000/svg" width="640" height="480" viewBox="0 0 640 480" role="img">
  <rect width="640" height="480" fill="#f6faf7"/>
  <rect x="0" y="126" width="640" height="354" fill="#e6ece8"/>
  <path d="M0 420 C138 360 220 330 320 312 C420 292 520 288 640 304 L640 480 L0 480 Z" fill="#ced8d2"/>
  <path d="M88 480 C184 392 255 332 320 160 C385 332 456 392 552 480 Z" fill="#176b57" opacity="0.88"/>
  <path d="M323 171 L269 480" stroke="#ffffff" stroke-width="8" stroke-linecap="round" stroke-dasharray="24 24" opacity="0.86"/>
  <path d="M374 171 L363 480" stroke="#ffffff" stroke-width="8" stroke-linecap="round" stroke-dasharray="24 24" opacity="0.86"/>
  <rect x="46" y="48" width="18" height="118" rx="6" fill="#395b88"/>
  <circle cx="55" cy="38" r="45" fill="#ffffff" stroke="#f5c542" stroke-width="12"/>
  <path d="M193 153 h105 a26 26 0 0 1 24 17 l13 39 h-167 l14-37 a26 26 0 0 1 25-19 z" fill="#395b88"/>
  <circle cx="223" cy="216" r="20.5" fill="#1f2d2a"/>
  <circle cx="308" cy="216" r="20.5" fill="#1f2d2a"/>
  <path d="M414 198 l54 -42 l54 42 v92 h-108 z" fill="#ffffff" stroke="#176b57" stroke-width="10" stroke-linejoin="round"/>
  <rect x="446" y="238" width="44" height="52" rx="5" fill="#f5c542" opacity="0.82"/>
  <path d="M78 322 c22 -34 58 -34 80 0 c-20 20 -60 20 -80 0 z" fill="#f5c542" opacity="0.72"/>
  <path d="M515 362 c20 -42 66 -42 86 0 c-22 26 -64 26 -86 0 z" fill="#176b57" opacity="0.35"/>
</svg>
